<svg xmlns="http://www.w3.org/2000/svg" fill="none" viewBox="0 0 260 116">
  <path fill="#000" d="m69.854 115.085-.53-1.243h-2.36l-.514 1.243h-1.618l3.222-6.901h.217l3.221 6.901h-1.638Zm-1.698-4.1-.683 1.643h1.354l-.671-1.643Z"/>
  <path fill="#000" d="M71.59 115.136h-1.77v-.029l-.496-1.21H67.03l-.513 1.239h-1.736l3.268-7.008h.285v.03l3.255 6.978Zm-1.698-.106h1.554l-3.171-6.791h-.149l-3.17 6.791h1.494l.513-1.239H69.4v.029l.492 1.21Zm-.993-2.364h-1.511l.76-1.838.751 1.838Zm-1.354-.106h1.197l-.594-1.452-.603 1.452ZM77.652 115.086l-1.168-2.233h-.857v2.241H74.04v-6.791c.669-.075 1.342-.112 2.016-.111 2.122 0 2.971 1.019 2.971 2.271a2.295 2.295 0 0 1-1.18 1.978l1.609 2.645h-1.804Zm-1.41-5.476a3.626 3.626 0 0 0-.615.047v1.889c.204 0 .318.025.505.025.756 0 1.24-.361 1.24-1.053.016-.568-.446-.908-1.13-.908Z"/>
  <path fill="#000" d="M79.55 115.136h-1.928v-.029l-1.15-2.199H75.691v2.237h-1.698v-6.889h.047a17.787 17.787 0 0 1 2.024-.115c1.923 0 3.023.849 3.023 2.326a2.357 2.357 0 0 1-1.155 1.995l1.617 2.674Zm-1.864-.106h1.698l-1.588-2.606.047-.03a2.228 2.228 0 0 0 1.15-1.931c0-1.409-1.06-2.22-2.916-2.22a17.675 17.675 0 0 0-1.965.106v6.681h1.481v-2.241h.926v.03l1.167 2.211Zm-1.554-3.396c-.17 0-.34-.01-.509-.029h-.05v-1.978h.046c.206-.034.415-.05.624-.047.73 0 1.184.365 1.184.959 0 .671-.463 1.087-1.312 1.087l.017.008Zm-.454-.131c.151.016.303.025.454.025.756 0 1.189-.365 1.189-1.001 0-.527-.424-.849-1.078-.849a3.18 3.18 0 0 0-.552.017l-.013 1.808ZM85.58 115.213c-2.232 0-3.743-1.503-3.743-3.532s1.511-3.54 3.744-3.54a4.19 4.19 0 0 1 2.122.599l-.488 1.345a3.391 3.391 0 0 0-1.634-.458 2.046 2.046 0 0 0-1.516.568 2.054 2.054 0 0 0-.47 2.298 2.066 2.066 0 0 0 1.986 1.247 3.433 3.433 0 0 0 1.697-.505l.476 1.341a4.15 4.15 0 0 1-2.173.637Z"/>
  <path fill="#000" d="M85.58 115.251c-2.236 0-3.82-1.473-3.82-3.587s1.562-3.591 3.82-3.591c.763.004 1.511.214 2.165.607h.038l-.522 1.443-.055-.029a3.36 3.36 0 0 0-1.609-.45 1.993 1.993 0 0 0-1.475.552 2.003 2.003 0 0 0 1.475 3.45c.6-.01 1.187-.181 1.698-.496l.06-.034.509 1.447-.034.021a4.234 4.234 0 0 1-2.25.667Zm0-7.072c-2.173 0-3.692 1.435-3.692 3.485s1.52 3.481 3.692 3.481a4.09 4.09 0 0 0 2.123-.607l-.425-1.244c-.514.305-1.1.47-1.698.48a2.125 2.125 0 0 1-2.186-2.978 2.128 2.128 0 0 1 2.186-1.237 3.443 3.443 0 0 1 1.61.424l.449-1.243a4.16 4.16 0 0 0-2.059-.561ZM94.919 115.085v-2.746h-2.636v2.746h-1.588v-6.846h1.588v2.678h2.636v-2.678h1.57v6.846h-1.57Z"/>
  <path fill="#000" d="M96.557 115.136h-1.698v-2.746h-2.525v2.746h-1.698v-6.952h1.698v2.682h2.525v-2.682h1.698v6.952Zm-1.588-.106h1.482v-6.74H94.97v2.678h-2.726v-2.683h-1.48v6.741h1.48v-2.742h2.738l-.013 2.746ZM99.915 115.085v-6.846h1.588v6.846h-1.588Z"/>
  <path fill="#000" d="M101.553 115.136h-1.698v-6.952h1.698v6.952Zm-1.588-.106h1.482v-6.74h-1.482v6.74ZM108.038 109.695v5.39h-1.587v-5.39h-2.055v-1.456h5.697v1.456h-2.055Z"/>
  <path fill="#000" d="M108.089 115.136h-1.698v-5.386h-2.05v-1.566h5.803v1.566h-2.055v5.386Zm-1.587-.106h1.481v-5.386h2.055v-1.354h-5.591v1.354h2.055v5.386ZM112.941 115.085v-6.846h4.347v1.456h-2.759v1.222h2.5v1.384h-2.5v1.337h2.759v1.447h-4.347Z"/>
  <path fill="#000" d="M117.326 115.136h-4.44v-6.952h4.44v1.566h-2.746v1.116h2.504v1.486h-2.504v1.231h2.746v1.553Zm-4.334-.106h4.245v-1.341h-2.746v-1.448h2.504v-1.273h-2.504v-1.329h2.746v-1.354h-4.245v6.745ZM123.867 115.213c-2.233 0-3.748-1.503-3.748-3.532s1.515-3.54 3.748-3.54c.748.007 1.48.214 2.122.599l-.488 1.345a3.43 3.43 0 0 0-1.634-.458 2.044 2.044 0 0 0-.816.129 2.046 2.046 0 0 0-1.171 1.118 2.064 2.064 0 0 0 .471 2.298 2.062 2.062 0 0 0 1.516.568 3.428 3.428 0 0 0 1.697-.505l.476 1.341a4.15 4.15 0 0 1-2.173.637Z"/>
  <path fill="#000" d="M123.867 115.251c-2.237 0-3.799-1.473-3.799-3.587s1.562-3.591 3.799-3.591a4.247 4.247 0 0 1 2.165.607h.038l-.522 1.443-.056-.029a3.358 3.358 0 0 0-1.608-.45 1.995 1.995 0 0 0-1.476.552 1.995 1.995 0 0 0-.458 2.237 1.993 1.993 0 0 0 1.139 1.088c.254.095.524.138.795.125.6-.01 1.186-.181 1.698-.496l.055-.034.513 1.447-.034.021a4.232 4.232 0 0 1-2.249.667Zm0-7.072c-2.173 0-3.693 1.435-3.693 3.485s1.52 3.481 3.693 3.481a4.111 4.111 0 0 0 2.122-.607l-.424-1.244c-.515.305-1.1.47-1.698.48a2.126 2.126 0 0 1-2.373-2.108 2.122 2.122 0 0 1 2.373-2.107 3.425 3.425 0 0 1 1.604.424l.45-1.243a4.12 4.12 0 0 0-2.054-.561ZM132.11 109.695v5.39h-1.588v-5.39h-2.054v-1.456h5.696v1.456h-2.054Z"/>
  <path fill="#000" d="M132.165 115.136h-1.698v-5.386h-2.054v-1.566h5.802v1.566h-2.054l.004 5.386Zm-1.588-.106h1.482v-5.386h2.054v-1.354h-5.59v1.354h2.054v5.386ZM138.667 115.213a4.602 4.602 0 0 1-2.309-.701l.425-1.439a3.393 3.393 0 0 0 1.914.667c.56 0 .773-.263.773-.599 0-.335-.179-.598-1.223-1.018-1.205-.489-1.625-1.189-1.625-2.008 0-1.002.815-1.974 2.411-1.974a3.756 3.756 0 0 1 1.914.535l-.403 1.418a3.108 3.108 0 0 0-1.511-.561c-.582 0-.815.272-.815.552 0 .45.348.599 1.205.964 1.273.539 1.664 1.158 1.664 2.033.017 1.078-.777 2.131-2.42 2.131Z"/>
  <path fill="#000" d="M138.668 115.251a4.672 4.672 0 0 1-2.339-.709l-.034-.025.475-1.545.06.042a3.321 3.321 0 0 0 1.884.654c.471 0 .722-.187.722-.544 0-.356-.178-.564-1.193-.972-1.116-.45-1.655-1.12-1.655-2.054 0-.934.768-2.025 2.462-2.025.685.002 1.357.19 1.944.544h.029l-.424 1.528-.064-.043a3.02 3.02 0 0 0-1.481-.552c-.56 0-.76.255-.76.497 0 .399.28.535 1.172.913 1.205.509 1.697 1.116 1.697 2.084-.008 1.108-.776 2.207-2.495 2.207Zm-2.246-.777a4.62 4.62 0 0 0 2.246.671c1.647 0 2.381-1.044 2.381-2.08 0-.777-.276-1.414-1.63-1.987-.849-.356-1.235-.522-1.235-1.01 0-.293.229-.603.849-.603a3.083 3.083 0 0 1 1.481.527l.369-1.312a3.73 3.73 0 0 0-1.85-.501c-1.622 0-2.356.994-2.356 1.919s.518 1.524 1.592 1.957c1.074.433 1.273.687 1.273 1.069 0 .382-.301.65-.828.65a3.464 3.464 0 0 1-1.889-.628l-.403 1.328ZM153.439 115.213a4.602 4.602 0 0 1-2.309-.701l.425-1.439a3.393 3.393 0 0 0 1.914.667c.56 0 .773-.263.773-.599 0-.335-.174-.598-1.223-1.018-1.205-.489-1.625-1.189-1.625-2.008 0-1.002.814-1.974 2.41-1.974a3.735 3.735 0 0 1 1.915.535l-.399 1.418a3.146 3.146 0 0 0-1.516-.561c-.577 0-.81.272-.81.552 0 .45.344.599 1.201.964 1.273.539 1.664 1.158 1.664 2.033.017 1.078-.794 2.131-2.42 2.131Z"/>
  <path fill="#000" d="M153.439 115.251a4.672 4.672 0 0 1-2.339-.709l-.03-.025.471-1.545.06.042a3.321 3.321 0 0 0 1.884.654c.472 0 .722-.187.722-.544 0-.356-.178-.564-1.193-.972-1.112-.45-1.655-1.12-1.655-2.054 0-.934.768-2.025 2.462-2.025.685.002 1.357.19 1.944.544h.034l-.425 1.528-.063-.043a3.023 3.023 0 0 0-1.482-.552c-.56 0-.759.255-.759.497 0 .399.28.535 1.171.913 1.205.509 1.698 1.116 1.698 2.084-.026 1.108-.781 2.207-2.5 2.207Zm-2.246-.777a4.623 4.623 0 0 0 2.246.671c1.647 0 2.385-1.044 2.385-2.08 0-.777-.28-1.414-1.63-1.987-.849-.356-1.239-.522-1.239-1.01 0-.293.229-.603.849-.603a3.083 3.083 0 0 1 1.481.527l.374-1.312a3.752 3.752 0 0 0-1.855-.501c-1.617 0-2.356.994-2.356 1.919s.518 1.524 1.592 1.957c1.074.433 1.273.687 1.273 1.069 0 .382-.301.65-.849.65a3.442 3.442 0 0 1-1.884-.628l-.387 1.328ZM161.983 109.695v5.39h-1.587v-5.39h-2.055v-1.456h5.697v1.456h-2.055Z"/>
  <path fill="#000" d="M162.034 115.136h-1.697v-5.386h-2.055v-1.566h5.803v1.566h-2.055l.004 5.386Zm-1.587-.106h1.481v-5.386h2.05v-1.354h-5.585v1.354h2.054v5.386ZM169.679 115.213c-1.842 0-2.869-.989-2.869-2.895v-4.062h1.587v3.952c0 .967.425 1.557 1.316 1.557s1.307-.59 1.307-1.557v-3.952h1.588v4.062c0 1.889-1.091 2.895-2.929 2.895Z"/>
  <path fill="#000" d="M169.679 115.251c-1.885 0-2.92-1.049-2.92-2.95v-4.117h1.698v4.006c0 .998.424 1.507 1.273 1.507 1.04 0 1.273-.819 1.273-1.507v-4.006h1.698v4.117c-.038 1.901-1.082 2.95-3.022 2.95Zm-2.814-6.961v4.011c0 1.859.972 2.844 2.814 2.844s2.878-1.01 2.878-2.844v-4.011h-1.481v3.9c0 1.053-.472 1.613-1.363 1.613s-1.367-.56-1.367-1.613v-3.9h-1.481ZM177.986 115.141a21.199 21.199 0 0 1-2.093-.11v-6.728a17.414 17.414 0 0 1 2.029-.11c2.84 0 4.164 1.477 4.164 3.395-.017 2.029-1.278 3.553-4.1 3.553Zm.148-5.518a5.273 5.273 0 0 0-.653.038v4.037c.252.027.506.039.759.038 1.494 0 2.157-.849 2.157-2.122 0-1.274-.803-2.004-2.28-2.004l.017.013Z"/>
  <path fill="#000" d="M177.985 115.213c-.7 0-1.4-.037-2.097-.111h-.046v-6.846h.021a17.94 17.94 0 0 1 2.033-.115c2.64 0 4.215 1.273 4.215 3.464.009 2.279-1.503 3.608-4.126 3.608Zm-2.037-.213a19.81 19.81 0 0 0 2.037.107c2.573 0 4.045-1.274 4.045-3.485 0-2.123-1.536-3.358-4.108-3.358-.66-.002-1.319.035-1.974.111V115Zm2.292-1.205c-.255.003-.51-.01-.764-.038h-.047v-4.13h.047c.218-.028.438-.041.658-.038 1.473 0 2.313.742 2.313 2.041-.017 1.371-.802 2.144-2.224 2.144l.017.021Zm-.705-.14c.234.026.47.037.705.034 1.736 0 2.101-1.125 2.101-2.067 0-1.248-.781-1.936-2.207-1.936-.2-.001-.4.009-.599.03v3.939ZM185.244 115.085v-6.846h1.588v6.846h-1.588Z"/>
  <path fill="#000" d="M186.899 115.136h-1.698v-6.952h1.698v6.952Zm-1.587-.106h1.481v-6.74h-1.481v6.74ZM193.478 115.212c-2.122 0-3.472-1.523-3.472-3.531a3.402 3.402 0 0 1 .991-2.549 3.385 3.385 0 0 1 1.171-.763 3.377 3.377 0 0 1 1.378-.228c2.122 0 3.472 1.524 3.472 3.54a3.403 3.403 0 0 1-.994 2.543 3.396 3.396 0 0 1-2.546.988Zm.03-5.649c-1.082 0-1.813.887-1.813 2.122 0 1.235.731 2.122 1.813 2.122 1.082 0 1.812-.895 1.812-2.122 0-1.227-.73-2.139-1.812-2.139v.017Z"/>
  <path fill="#000" d="M193.478 115.251c-2.075 0-3.527-1.473-3.527-3.587a3.481 3.481 0 0 1 1.018-2.576 3.465 3.465 0 0 1 2.577-1.015c2.076 0 3.528 1.478 3.528 3.591a3.465 3.465 0 0 1-2.202 3.349 3.476 3.476 0 0 1-1.394.238Zm.068-7.071a3.337 3.337 0 0 0-3.489 3.484 3.305 3.305 0 0 0 3.421 3.481 3.38 3.38 0 0 0 2.501-.982 3.365 3.365 0 0 0 .989-2.499c0-2.05-1.41-3.484-3.422-3.484Zm-.038 5.658c-1.099 0-1.867-.892-1.867-2.174s.768-2.173 1.867-2.173c1.1 0 1.864.896 1.864 2.173 0 1.278-.769 2.174-1.864 2.174Zm0-4.245c-1.036 0-1.761.849-1.761 2.067 0 1.218.725 2.067 1.761 2.067s1.757-.849 1.757-2.067c0-1.218-.725-2.063-1.757-2.063v-.004ZM130.391 41.098a13.46 13.46 0 1 1 13.455-13.455 13.472 13.472 0 0 1-13.455 13.455Zm0-25.468a12 12 0 0 0-11.093 7.408 11.994 11.994 0 0 0-.685 6.935 12.004 12.004 0 0 0 23.777-2.34 12.015 12.015 0 0 0-11.999-11.994v-.009Z"/>
  <path fill="#000" d="M130.391 12.137a.616.616 0 0 0 .611-.616V1.648a.618.618 0 0 0-1.196-.25.627.627 0 0 0-.031.25v9.873c.002.16.066.312.178.425a.627.627 0 0 0 .438.19ZM130.391 43.148a.617.617 0 0 0-.616.615v9.873a.618.618 0 0 0 .861.615.607.607 0 0 0 .335-.364.627.627 0 0 0 .031-.25v-9.874a.614.614 0 0 0-.176-.436.608.608 0 0 0-.435-.179ZM156.385 27.027h-9.877a.614.614 0 0 0 0 1.226h9.877a.616.616 0 0 0 0-1.226ZM114.881 27.642a.625.625 0 0 0-.178-.424.617.617 0 0 0-.425-.178h-9.885a.614.614 0 0 0 0 1.226h9.877a.604.604 0 0 0 .566-.376.627.627 0 0 0 .045-.235v-.013ZM142.221 38.61a.619.619 0 0 0-.425-.216.627.627 0 0 0-.458.182.602.602 0 0 0-.178.455c.005.08.027.16.064.233a.604.604 0 0 0 .148.19l6.982 7a.624.624 0 0 0 .685.139.61.61 0 0 0 .202-.988l-7.02-6.995ZM118.561 16.678a.613.613 0 0 0 .932.086.612.612 0 0 0-.062-.934l-6.986-7.004a.629.629 0 0 0-.453-.247.615.615 0 0 0-.396 1.117l6.965 6.982ZM118.561 38.61l-6.987 6.991a.608.608 0 0 0 .044.91.608.608 0 0 0 .57.112.613.613 0 0 0 .256-.156l6.966-6.99a.615.615 0 0 0 0-.85.614.614 0 0 0-.87 0l.021-.017ZM141.788 16.857a.579.579 0 0 0 .424-.178l7.004-6.983a.615.615 0 1 0-.849-.87l-7.012 6.982a.612.612 0 0 0 .433 1.049ZM109.058 19.628l6.171 2.505a.621.621 0 0 0 .802-.819.623.623 0 0 0-.339-.331l-6.138-2.51a.624.624 0 0 0-.496 1.143v.012ZM151.725 35.66l-6.185-2.512a.626.626 0 0 0-.488 0 .623.623 0 0 0-.348.343.618.618 0 0 0 .16.685.612.612 0 0 0 .213.126l6.142 2.513a.594.594 0 0 0 .609-.101.619.619 0 0 0 .15-.758.614.614 0 0 0-.3-.279l.047-.017ZM123.561 13.024a.616.616 0 0 0 .569.378c.08 0 .16-.018.233-.051a.61.61 0 0 0 .336-.331.596.596 0 0 0-.005-.471l-2.589-6.143a.617.617 0 0 0-1.129.484l2.585 6.134ZM137.237 42.257a.614.614 0 0 0-1.129.48l2.585 6.141a.613.613 0 1 0 1.129-.475l-2.585-6.146ZM136.236 13.279a.617.617 0 0 0 .573-.057.613.613 0 0 0 .225-.274l2.512-6.142a.615.615 0 0 0-1.137-.467l-2.513 6.154a.612.612 0 0 0 .34.798v-.012ZM124.55 42.006a.615.615 0 0 0-.806.336l-2.509 6.142a.628.628 0 0 0-.046.234.627.627 0 0 0 .182.432.613.613 0 0 0 .199.132c.074.03.154.045.234.042a.615.615 0 0 0 .573-.378l2.504-6.142a.61.61 0 0 0-.331-.798ZM144.678 21.619a.614.614 0 0 0 .807.331l6.138-2.593a.613.613 0 0 0 .349-.812.635.635 0 0 0-.825-.335l-6.142 2.602a.615.615 0 0 0-.327.807ZM116.103 33.666a.597.597 0 0 0-.335-.332.615.615 0 0 0-.475 0l-6.138 2.59a.613.613 0 0 0-.161 1.053c.113.09.254.138.399.135a.51.51 0 0 0 .237-.047l6.142-2.585a.607.607 0 0 0 .381-.57.618.618 0 0 0-.05-.236v-.008ZM137.866 28.449a7.418 7.418 0 0 1-12.419 4.845 7.417 7.417 0 0 1-2.369-4.845h-1.231a8.644 8.644 0 0 0 8.625 8.04 8.648 8.648 0 0 0 8.625-8.04h-1.231ZM127.352 26.535l-.395-.955h-1.812l-.395.955h-1.244l2.475-5.31h.165l2.479 5.31h-1.273Zm-1.299-3.154-.522 1.273h1.04l-.518-1.273ZM136.066 26.535l-.395-.955h-1.829l-.395.955h-1.243l2.487-5.31h.165l2.475 5.31h-1.265Zm-1.299-3.154-.526 1.273h1.044l-.518-1.273ZM45.554 26.62v2.08c-.5.291-1.072.438-1.651.424a2.251 2.251 0 0 1-1.544-3.86 2.249 2.249 0 0 1 1.6-.64c.51.001 1.011.13 1.46.374l-.425.815c-.301-.159-.636-.243-.977-.246a1.223 1.223 0 0 0-1.328 1.307 1.274 1.274 0 0 0 1.273 1.35c.22.017.44-.022.641-.114v-.629h-.849v-.849l1.8-.012Z"/>
  <path fill="#000" d="M43.911 29.192a2.242 2.242 0 0 1-2.338-2.301 2.276 2.276 0 0 1 2.394-2.305c.52 0 1.03.131 1.485.382l.047.026-.471.908-.047-.026a2.062 2.062 0 0 0-.95-.237 1.163 1.163 0 0 0-1.274 1.273 1.206 1.206 0 0 0 1.214 1.286c.201.015.404-.018.59-.097v-.565h-.875v-.968h1.932v2.165h-.03a3.192 3.192 0 0 1-1.677.459Zm.056-4.5a2.174 2.174 0 0 0-2.288 2.199 2.121 2.121 0 0 0 2.232 2.194 3.064 3.064 0 0 0 1.6-.424v-1.995h-1.719v.756h.875v.734h-.03a1.362 1.362 0 0 1-.666.123 1.306 1.306 0 0 1-1.324-1.405 1.275 1.275 0 0 1 1.383-1.358c.33 0 .655.078.951.225l.374-.722a2.947 2.947 0 0 0-1.388-.327ZM49.87 29.068l-.742-1.422a1.144 1.144 0 0 1-.17 0h-.374v1.426h-1.01v-4.32c.423-.05.848-.074 1.274-.073 1.354 0 1.888.65 1.888 1.448a1.468 1.468 0 0 1-.747 1.273l1.02 1.698-1.139-.03Zm-.895-3.485a2.322 2.322 0 0 0-.39.03v1.201c.105.006.212.006.318 0 .484 0 .79-.233.79-.675 0-.34-.285-.556-.718-.556Z"/>
  <path fill="#000" d="M51.11 29.124h-1.273v-.03l-.726-1.388H48.627v1.426h-1.116v-4.427h.046c.423-.05.848-.073 1.274-.072 1.235 0 1.94.547 1.94 1.498a1.524 1.524 0 0 1-.726 1.274l1.065 1.719Zm-1.205-.107h1.018l-1.001-1.668.046-.025a1.4 1.4 0 0 0 .722-1.214c0-.887-.666-1.392-1.834-1.392-.41 0-.822.02-1.23.063v4.22h.9v-1.414H49.153l.75 1.43Zm-1.002-2.122a3.021 3.021 0 0 1-.327 0h-.05v-1.273h.046c.132-.022.265-.032.399-.03.467 0 .772.246.772.628.005.395-.31.667-.84.667v.008Zm-.267-.119h.267c.467 0 .739-.225.739-.62 0-.322-.255-.521-.667-.521a2.04 2.04 0 0 0-.34.02v1.121ZM52.744 29.069v-4.36H55.5v.943h-1.745v.764h1.592v.883h-1.592v.849H55.5v.92h-2.755Z"/>
  <path fill="#000" d="M55.55 29.124h-2.861v-4.465h2.86v1.031h-1.744v.675h1.592v.985h-1.592v.747h1.745v1.027Zm-2.755-.106h2.649v-.82h-1.745v-.954h1.592v-.773h-1.592v-.887h1.745v-.82h-2.649v4.254ZM60.227 29.069l-.326-.79h-1.503l-.327.79h-1.027l2.05-4.394h.136l2.05 4.393h-1.053Zm-1.09-2.611-.425 1.048h.849l-.425-1.048Z"/>
  <path fill="#000" d="M61.365 29.124h-1.172l-.326-.794h-1.43l-.328.794h-1.146l2.097-4.5h.204v.03l2.101 4.47Zm-1.1-.106h.93l-1.999-4.287h-.06l-1.999 4.287h.909l.327-.794h1.574l.319.794Zm-.606-1.46H58.64l.497-1.24.522 1.24Zm-.85-.107h.701l-.348-.849-.352.85ZM64.519 25.652v3.43h-1.01v-3.43H62.2v-.943h3.625v.943H64.52Z"/>
  <path fill="#000" d="M64.574 29.124h-1.116V25.69H62.15V24.66h3.727v1.031h-1.303v3.434Zm-1.01-.106h.904v-3.434h1.303v-.82h-3.514v.82h1.307v3.434ZM41.31 35.839h-.374v1.303h-1.027v-4.326c.401-.044.805-.069 1.21-.072 1.273 0 1.935.675 1.935 1.554 0 .878-.611 1.54-1.745 1.54Zm0-2.153c-.126.001-.25.01-.374.026v1.24h.301c.535 0 .802-.23.802-.654-.017-.331-.25-.607-.73-.607v-.005Z"/>
  <path fill="#000" d="M40.97 37.188h-1.117V32.77h.051c.404-.045.809-.07 1.214-.072 1.21 0 1.991.628 1.991 1.604 0 .977-.696 1.596-1.8 1.596h-.314l-.025 1.29Zm-1.01-.106h.925v-1.307h.429c1.052 0 1.697-.573 1.697-1.494s-.738-1.498-1.884-1.498c-.387.001-.774.024-1.159.068l-.008 4.231Zm1.273-2.058h-.182l-.166-.034v-1.32h.047c.126-.015.254-.022.382-.022.483 0 .78.26.78.675-.02.315-.17.7-.874.7h.013Zm-.25-.115h.25c.497 0 .747-.203.747-.602 0-.4-.246-.56-.67-.56a2.893 2.893 0 0 0-.323 0l-.004 1.162ZM44.934 37.133v-4.36h1.01v3.44h1.732v.92h-2.742Z"/>
  <path fill="#000" d="M47.744 37.188h-2.86v-4.465H46v3.438h1.744v1.027Zm-2.755-.106h2.649v-.819h-1.744v-3.438h-.905v4.257ZM52.112 37.133l-.327-.79h-1.502l-.327.79H48.95L51 32.74h.136l2.05 4.393h-1.074Zm-1.074-2.61-.424 1.048h.849l-.425-1.048Z"/>
  <path fill="#000" d="M53.245 37.188h-1.167l-.327-.794h-1.434l-.327.794h-1.146l2.122-4.499h.204v.03l2.075 4.47Zm-1.099-.106h.934l-2.008-4.287h-.068l-1.999 4.287h.908l.327-.794h1.57l.336.794Zm-.603-1.46h-1.018l.513-1.24.505 1.24Zm-.849-.106h.705l-.348-.85-.357.85ZM56.824 37.205c-1.418 0-2.382-.955-2.382-2.25 0-1.294.964-2.249 2.382-2.249.48.003.95.133 1.362.378l-.31.849a2.185 2.185 0 0 0-1.04-.293 1.31 1.31 0 1 0 0 2.619c.385-.007.76-.119 1.087-.323l.301.85c-.417.269-.903.415-1.4.42Z"/>
  <path fill="#000" d="M56.824 37.256c-1.435 0-2.432-.942-2.432-2.3 0-1.359.997-2.305 2.432-2.305.49.003.968.138 1.388.39h.038l-.344.955-.055-.03a2.122 2.122 0 0 0-1.014-.284 1.273 1.273 0 1 0 0 2.509 2.08 2.08 0 0 0 1.06-.314l.056-.034.335.96-.034.02a2.683 2.683 0 0 1-1.43.433Zm0-4.499c-1.371 0-2.326.904-2.326 2.199 0 1.294.955 2.194 2.326 2.194.47 0 .933-.128 1.337-.37l-.268-.755a2.24 2.24 0 0 1-1.056.293 1.361 1.361 0 1 1 0-2.72c.353.007.699.099 1.01.267l.271-.756a2.627 2.627 0 0 0-1.294-.352ZM60.084 37.133v-4.36h2.754v.943h-1.744v.764h1.591v.883h-1.591v.85h1.744v.92h-2.755Z"/>
  <path fill="#000" d="M62.89 37.188h-2.862v-4.465h2.861v1.032h-1.744v.674h1.591v.985h-1.591v.747h1.744v1.027Zm-2.756-.106h2.65v-.819h-1.745v-.955h1.591v-.772h-1.592v-.888h1.745v-.819h-2.649v4.253ZM66.06 37.205a2.942 2.942 0 0 1-1.469-.424l.28-.917c.354.261.78.409 1.219.424.356 0 .492-.17.492-.382s-.115-.382-.777-.649c-.768-.306-1.035-.756-1.035-1.273 0-.637.517-1.253 1.532-1.253.428.002.849.118 1.218.336l-.255.904a1.99 1.99 0 0 0-.963-.357c-.365 0-.518.174-.518.353 0 .284.22.382.768.61.815.349 1.057.74 1.057 1.3.017.666-.505 1.328-1.55 1.328Z"/>
  <path fill="#000" d="M66.06 37.257a2.972 2.972 0 0 1-1.499-.455h-.03l.31-1.023.06.043c.344.258.758.407 1.189.424.199 0 .424-.055.424-.327 0-.174-.051-.322-.743-.598-.692-.276-1.065-.726-1.065-1.329 0-.602.496-1.307 1.583-1.307.44.002.87.122 1.248.348h.034l-.289 1.015-.06-.043a1.889 1.889 0 0 0-.933-.348c-.34 0-.463.153-.463.297 0 .242.166.323.735.565.772.327 1.09.717 1.09 1.345.013.688-.483 1.393-1.591 1.393Zm-1.405-.518c.425.257.908.403 1.405.424 1.031 0 1.498-.654 1.498-1.299 0-.488-.174-.887-1.027-1.248-.548-.233-.798-.34-.798-.662 0-.187.148-.424.569-.424.334.026.656.139.933.327l.221-.798a2.352 2.352 0 0 0-1.154-.31c-1.015 0-1.477.624-1.477 1.201 0 .577.318.955.997 1.23.68.277.81.425.81.697 0 .132-.05.424-.543.424a2.191 2.191 0 0 1-1.188-.39l-.246.828ZM184.917 29.107c-.444.002-.887-.018-1.329-.06v-4.296a11.78 11.78 0 0 1 1.274-.067c1.804 0 2.648.938 2.648 2.169 0 1.23-.785 2.253-2.593 2.253Zm.098-3.523a3.163 3.163 0 0 0-.425.025v2.59c.159.017.319.026.48.025a1.222 1.222 0 0 0 1.371-1.35c.008-.798-.488-1.29-1.426-1.29Z"/>
  <path fill="#000" d="M184.917 29.158c-.445 0-.89-.024-1.333-.073h-.051v-4.38h.051c.43-.048.862-.072 1.295-.072 1.698 0 2.699.849 2.699 2.224 0 1.46-.967 2.3-2.661 2.3Zm-1.273-.175c.423.046.848.068 1.273.068 1.626 0 2.547-.802 2.547-2.198 0-1.325-.972-2.123-2.594-2.123-.414-.001-.828.021-1.239.068l.013 4.186Zm1.438-.73c-.161.01-.322.01-.483 0h-.051v-2.69h.046c.141-.02.283-.028.425-.026.946 0 1.49.48 1.49 1.32a1.28 1.28 0 0 1-.377 1.045 1.275 1.275 0 0 1-1.054.351h.004Zm-.424-.123c.141.007.283.007.424 0 1.091 0 1.321-.704 1.321-1.294 0-.785-.493-1.214-1.384-1.214a3.317 3.317 0 0 0-.365 0l.004 2.508ZM189.518 29.069v-4.355h2.755v.938h-1.745v.78h1.592v.88h-1.592v.848h1.745v.922l-2.755-.013Z"/>
  <path fill="#000" d="M192.328 29.124h-2.861v-4.465h2.861v1.035h-1.749v.671h1.592v.985h-1.592v.747h1.749v1.027Zm-2.755-.106h2.649v-.82h-1.749v-.954h1.592v-.773h-1.592v-.883h1.749v-.823h-2.649v4.253ZM195.495 29.14a2.915 2.915 0 0 1-1.465-.424l.276-.917c.354.262.779.41 1.218.425.357 0 .493-.166.493-.382 0-.217-.111-.382-.777-.65-.764-.305-1.031-.751-1.031-1.273 0-.637.513-1.274 1.532-1.274.429.002.85.12 1.218.34l-.259.9a1.975 1.975 0 0 0-.959-.357c-.369 0-.518.174-.518.353 0 .284.221.382.764.61.815.349 1.061.74 1.061 1.3 0 .692-.505 1.35-1.553 1.35Z"/>
  <path fill="#000" d="M195.495 29.196a2.966 2.966 0 0 1-1.494-.454l-.034-.026.314-1.023.059.043c.342.26.756.407 1.185.424.203 0 .424-.055.424-.326 0-.174-.055-.319-.747-.599-.692-.28-1.065-.722-1.065-1.328 0-.608.496-1.308 1.587-1.308.44.003.87.124 1.248.348h.03l-.285 1.015-.063-.043a1.895 1.895 0 0 0-.93-.348c-.344 0-.467.153-.467.297 0 .242.166.323.734.565.777.327 1.091.717 1.091 1.345.005.71-.479 1.418-1.587 1.418Zm-1.405-.522c.424.259.908.405 1.405.424 1.036 0 1.498-.657 1.498-1.303 0-.488-.174-.887-1.023-1.248-.552-.233-.802-.34-.802-.662 0-.187.153-.424.573-.424.333.027.653.14.93.327l.225-.798c-.352-.2-.75-.307-1.155-.31-1.019 0-1.481.624-1.481 1.201 0 .577.318.955 1.001 1.23.684.277.811.447.811.697 0 .132-.055.425-.547.425a2.23 2.23 0 0 1-1.189-.387l-.246.828ZM198.971 29.069v-4.355h1.01v4.355h-1.01Z"/>
  <path fill="#000" d="M200.057 29.124h-1.116v-4.465h1.116v4.465Zm-1.01-.106h.904v-4.245h-.904v4.245ZM205.94 26.62v2.08c-.5.291-1.072.438-1.651.424a2.256 2.256 0 0 1-1.583-.678 2.254 2.254 0 0 1 .039-3.182 2.253 2.253 0 0 1 1.599-.64c.511.001 1.013.13 1.46.374l-.424.815a2.122 2.122 0 0 0-.976-.246 1.223 1.223 0 0 0-1.329 1.312 1.287 1.287 0 0 0 .345.95 1.27 1.27 0 0 0 .929.4c.22.016.441-.025.64-.12v-.628h-.87v-.849l1.821-.012Z"/>
  <path fill="#000" d="M204.302 29.196a2.245 2.245 0 0 1-2.339-2.3 2.27 2.27 0 0 1 .695-1.675 2.284 2.284 0 0 1 1.699-.635c.52 0 1.031.131 1.486.382l.046.026-.471.908-.046-.026a2.067 2.067 0 0 0-.951-.237 1.162 1.162 0 0 0-1.274 1.273 1.215 1.215 0 0 0 .333.902 1.206 1.206 0 0 0 .886.372c.201.014.403-.02.59-.098v-.552h-.875v-.968H206v2.165h-.03a3.197 3.197 0 0 1-1.668.463Zm.055-4.504a2.176 2.176 0 0 0-2.288 2.203 2.13 2.13 0 0 0 .634 1.589 2.122 2.122 0 0 0 1.599.606 3.081 3.081 0 0 0 1.6-.425V26.67h-1.719v.756h.874v.73h-.029a1.364 1.364 0 0 1-.667.123 1.306 1.306 0 0 1-1.253-.867 1.308 1.308 0 0 1-.071-.534 1.268 1.268 0 0 1 .376-1.001 1.278 1.278 0 0 1 1.008-.361c.33 0 .655.078.951.225l.373-.722a2.948 2.948 0 0 0-1.401-.327h.013ZM211.582 29.153l-2.611-2.36v2.275h-1.01v-4.414l.14-.026 2.589 2.343v-2.258h1.006v4.423l-.114.017Z"/>
  <path fill="#000" d="M211.564 29.208h-.021l-2.547-2.279v2.211h-1.116v-4.533l.204-.034h.021l2.5 2.263v-2.178h1.116v4.52l-.157.03Zm-2.661-2.546 2.695 2.423h.03v-4.32h-.904v2.325l-2.657-2.406h-.068v4.333h.904v-2.355ZM213.822 29.069v-4.355h2.755v.938h-1.745v.78h1.592v.88h-1.592v.848h1.745v.922l-2.755-.013Z"/>
  <path fill="#000" d="M216.633 29.124h-2.865v-4.465h2.865v1.035h-1.749v.671h1.592v.985h-1.592v.747h1.749v1.027Zm-2.759-.106h2.653v-.82h-1.749v-.954h1.592v-.773h-1.592v-.883h1.749v-.823h-2.653v4.253ZM220.007 29.107a13.003 13.003 0 0 1-1.329-.073v-4.282c.423-.046.848-.069 1.274-.068 1.804 0 2.648.938 2.648 2.169 0 1.23-.806 2.253-2.593 2.253Zm.093-3.523a3.24 3.24 0 0 0-.424.025v2.59c.16.017.322.025.484.025a1.223 1.223 0 0 0 1.371-1.35c-.009-.798-.51-1.29-1.448-1.29h.017Z"/>
  <path fill="#000" d="M220.007 29.158c-.447 0-.893-.024-1.337-.073h-.047v-4.38h.047c.43-.048.862-.072 1.294-.072 1.698 0 2.704.849 2.704 2.224-.017 1.46-.989 2.3-2.661 2.3Zm-1.274-.175c.423.046.848.069 1.274.068 1.621 0 2.547-.802 2.547-2.198 0-1.325-.972-2.123-2.598-2.123-.409 0-.817.024-1.223.073v4.18Zm1.439-.73c-.162.01-.325.01-.488 0h-.046v-2.69h.046c.141-.02.283-.028.425-.026.946 0 1.49.48 1.49 1.32a1.273 1.273 0 0 1-.875 1.348c-.185.06-.381.076-.573.049h.021Zm-.424-.123c.141.008.283.008.424 0a1.17 1.17 0 0 0 1.316-1.294c0-.785-.488-1.214-1.384-1.214a3.275 3.275 0 0 0-.36 0l.004 2.508ZM187.281 33.716v.964h1.494v.887h-1.494v1.579h-1.01v-4.368h2.751v.938h-1.741Z"/>
  <path fill="#000" d="M187.324 37.188h-1.104v-4.465h2.861v1.036h-1.757v.849h1.498v.989h-1.498v1.591Zm-1.006-.106h.9V35.5h1.498v-.777h-1.498v-1.07h1.748v-.823h-2.648v4.253ZM192.918 37.205a2.12 2.12 0 0 1-2.207-2.245 2.166 2.166 0 0 1 2.249-2.254 2.123 2.123 0 0 1 2.212 2.254 2.16 2.16 0 0 1-.636 1.616 2.153 2.153 0 0 1-1.618.63Zm0-3.595c-.688 0-1.15.565-1.15 1.35 0 .785.462 1.35 1.15 1.35s1.154-.573 1.154-1.35c0-.777-.445-1.35-1.137-1.35h-.017Z"/>
  <path fill="#000" d="M192.919 37.261a2.182 2.182 0 0 1-2.263-2.3 2.244 2.244 0 0 1 .651-1.655 2.236 2.236 0 0 1 1.654-.655 2.188 2.188 0 0 1 2.262 2.31 2.218 2.218 0 0 1-.653 1.65 2.227 2.227 0 0 1-1.651.65Zm.042-4.504a2.121 2.121 0 0 0-2.199 2.203 2.1 2.1 0 0 0 .595 1.573 2.082 2.082 0 0 0 1.562.622 2.118 2.118 0 0 0 2.051-1.342c.107-.271.157-.561.147-.853a2.076 2.076 0 0 0-.591-1.578 2.081 2.081 0 0 0-1.565-.624Zm-.025 3.604c-.709 0-1.202-.577-1.202-1.4 0-.824.493-1.405 1.202-1.405.708 0 1.205.577 1.205 1.404 0 .828-.492 1.401-1.205 1.401Zm0-2.7c-.646 0-1.096.535-1.096 1.3 0 .764.45 1.273 1.096 1.273.645 0 1.099-.535 1.099-1.274 0-.738-.45-1.298-1.099-1.298ZM199.467 37.134l-.743-1.422a1.135 1.135 0 0 1-.169 0h-.378v1.426h-1.006v-4.321c.423-.045.848-.068 1.273-.068 1.354 0 1.889.645 1.889 1.443a1.455 1.455 0 0 1-.751 1.274l1.023 1.697-1.138-.03Zm-.895-3.485a2.353 2.353 0 0 0-.395.03v1.2c.107.014.215.02.322.022.48 0 .79-.233.79-.675 0-.36-.284-.577-.717-.577Z"/>
  <path fill="#000" d="M200.707 37.189h-1.273v-.03l-.726-1.388h-.475v1.426h-1.117V32.77h.047c.423-.05.848-.074 1.273-.072 1.231 0 1.94.547 1.94 1.498a1.515 1.515 0 0 1-.73 1.273l1.061 1.72Zm-1.205-.106h1.018l-1.001-1.647.046-.03a1.395 1.395 0 0 0 .722-1.214c0-.883-.666-1.392-1.834-1.392a10.6 10.6 0 0 0-1.231.068v4.215h.904v-1.431h.629l.747 1.43ZM198.5 34.96a2.877 2.877 0 0 1-.327 0h-.047v-1.273h.043c.133-.023.268-.032.403-.03.476 0 .768.242.768.628 0 .395-.314.667-.84.667v.008Zm-.267-.119h.267c.467 0 .734-.225.734-.62 0-.322-.254-.521-.662-.521a2.02 2.02 0 0 0-.339 0v1.141ZM204.727 37.133v-4.355h1.01v3.434h1.749v.921h-2.759Z"/>
  <path fill="#000" d="M207.553 37.188h-2.861v-4.465h1.117v3.438h1.744v1.027Zm-2.755-.106h2.649v-.819h-1.744v-3.438h-.905v4.257ZM209.302 37.133v-4.355h1.01v4.355h-1.01Z"/>
  <path fill="#000" d="M210.368 37.188h-1.117v-4.465h1.117v4.465Zm-1.01-.106h.887v-4.244h-.904l.017 4.244ZM213.492 33.716v.964h1.498v.887h-1.498v1.579h-1.011v-4.368h2.755v.938h-1.744Z"/>
  <path fill="#000" d="M213.543 37.188h-1.112v-4.465h2.861v1.036h-1.749v.849h1.498v.989h-1.498v1.591Zm-1.006-.106h.9V35.5h1.498v-.777h-1.498v-1.07h1.748v-.823h-2.648v4.253ZM217.07 37.133v-4.355h2.755v.938h-1.745v.781h1.592v.879h-1.592v.849h1.745v.921l-2.755-.013Z"/>
  <path fill="#000" d="M219.88 37.188h-2.844v-4.465h2.865v1.036h-1.749v.67h1.592v.985h-1.592v.747h1.749l-.021 1.027Zm-2.759-.106h2.652v-.819h-1.748v-.955h1.591v-.772h-1.591v-.883h1.748v-.824h-2.652v4.253ZM43.695 67.274c3.005 2.933 4.198 11.146 4.334 18.354L37.913 66.663h-10.26l1.274.67c.92.459.92 2.861.92 4.449v6.367c0 10.955-.58 13.404-2.33 15.09l-.067-.035c-1.18-.628-1.944-3.158-2.399-4.669L17.646 65.48l-.37.182a17.19 17.19 0 0 1-7.046 1.808l-.628.03.348.522a.74.74 0 0 0 .12.136.98.98 0 0 1 .322.82c0 .793-.522 2.546-.9 3.857l-.866 2.904C5.23 87.04 4.063 90.853.986 93.242l-.85.646h11.907l-.484-.586c-1.133-1.354-1.698-4.245-1.651-8.409h6.358l1.193 3.944c.382 1.18.79 2.517.79 3.463 0 .497-.09.802-.28.947l-.85.64h21.168l-.535-.594c-2.81-3.124-5.985-12.886-6.367-22.522l12.047 23.117h6.26v-7.314c0-10.87.098-17.594 1.46-19.338l.45-.573h-8.531l.624.611Zm-33.69 15.909c.248-4.254.835-8.48 1.753-12.64l3.922 12.64h-5.675ZM64.612 66.239c-7.895 0-12.997 5.48-12.997 13.96 0 8.481 5.094 13.957 12.997 13.957 7.904 0 12.997-5.48 12.997-13.957 0-8.476-5.102-13.96-12.997-13.96Zm0 26.511c-3.064 0-4.754-4.456-4.754-12.55 0-8.095 1.698-12.48 4.754-12.48 3.056 0 4.792 4.55 4.792 12.48 0 7.928-1.744 12.55-4.792 12.55ZM77.681 75.606l.709.064c.815-4.308 3.82-7.262 6.71-7.547v20.718c0 1.235 0 3.82-.946 4.385l-1.07.662h11.924l-1.656-.688c-.895-.369-.895-2.58-.895-4.359V68.123c2.877.285 5.895 3.239 6.71 7.547l.705-.064v-8.943h-22.19v8.944ZM124.02 88.803v-17.02c0-1.979.119-3.889.964-4.47l.933-.65h-11.519l1.345.675c.959.475.959 3.056.959 4.444v6.753h-7.012v-6.753c0-1.935.072-3.88.955-4.47l.977-.649h-11.461l1.295.67c.883.46.883 2.862.883 4.45v17.02c0 1.142 0 3.82-.921 4.431l-.955.654h11.498l-1.345-.675c-.917-.458-.917-2.835-.917-4.41v-8.634h7.012v8.634c0 1.885-.119 3.88-.989 4.427l-1.044.658h11.57l-1.273-.675c-.955-.475-.955-3.132-.955-4.41ZM126.77 66.663l1.346.675c.916.458.916 2.857.916 4.444v17.02c0 1.856-.072 3.876-.946 4.428l-1.036.658h21.86l.021-12.365-.874 2.093c-1.847 4.423-4.096 8.642-11.664 8.914V80.683c3.327.182 6.112 1.562 7.678 4.291l.692 1.426V73.276s-.497 1.104-.692 1.452c-1.74 3.132-4.287 4.113-7.683 4.295v-10.95c7.365.19 11.372 3.99 12.22 8.26.081.424.319 1.625.319 1.625V66.663H126.77ZM173.316 87.377l-.14-.361-.348.174a2.64 2.64 0 0 1-1.188.272c-2.798 0-7.148-2.708-8.859-4.181 6.477-.425 10.03-3.311 10.03-8.23 0-5.175-4.83-8.388-12.611-8.388h-9.643l.976.65c.917.615.917 2.843.917 4.47V88.84c0 1.626 0 3.85-.9 4.385l-1.116.662h11.808l-1.532-.683c-.849-.382-.849-2.874-.849-4.364v-5.463h.849c1.209 6.966 3.875 10.799 7.525 10.799 2.832 0 5.187-2.607 5.187-6.07a1.815 1.815 0 0 0-.106-.73Zm-13.451-5.573v-13.66h.9c2.882.102 4.342 2.416 4.342 6.868 0 4.453-1.456 6.753-4.334 6.792h-.908Z"/>
  <path fill="#000" d="M226.938 67.274c3.006 2.933 4.198 11.147 4.338 18.354L221.14 66.663h-10.242l1.274.67c.882.46.882 2.862.882 4.45v6.366c0 11.002-.585 13.421-2.347 15.11l-.573.548-1.163-.594c-.887-.458-.887-2.81-.887-4.372V71.782c0-1.855.072-3.884.925-4.47l.934-.649h-24.207l.586.603a5.71 5.71 0 0 1 1.783 4.172c0 1.847-1.329 5.37-3.799 8.26l-1.83 2.178V71.782c0-1.855.072-3.88.955-4.47l.977-.649h-11.643l1.4.675c.951.458.951 2.857.951 4.444v17.06c0 1.956-.119 3.82-.985 4.388l-1.044.658h11.656l-1.35-.675c-.917-.458-.917-2.814-.917-4.372v-4.363l2.645-3.192c.127 5.212 1.375 12.87 7.606 12.87 3.905 0 6.061-2.794 6.061-6.317v-.424c0-.157-.021-.217-.029-.365l-.03-.314-.488.195a2.674 2.674 0 0 1-1.061.242c-3.04 0-7.717-3.867-10.48-7.797l1.511-1.698c3.71-4.245 7.216-8.218 9.762-10.365l.637-.535 1.21.581c.951.459.951 2.857.951 4.444v17.06c0 1.956-.119 3.82-.989 4.388l-1.04.658h22.793l-.539-.594c-2.814-3.116-5.981-12.908-6.367-22.522l12.034 23.116h6.256v-7.335c0-10.87.098-17.593 1.46-19.338l.45-.573h-8.514l.623.611ZM246.128 66.663H236l.981.65c.917.615.917 2.75.917 4.47v17.02c0 1.626 0 3.854-.909 4.427l-1.044.658h10.187c8.341 0 13.732-5.331 13.732-13.583 0-8.251-5.395-13.642-13.736-13.642Zm.043 25.858h-.875V68.068h.875c3.871 0 5.751 4.003 5.751 12.246 0 12.207-4.325 12.207-5.751 12.207Z"/>
</svg>
