<svg xmlns="http://www.w3.org/2000/svg" fill="none" viewBox="0 0 318 35">
  <path fill="#FF5938" d="M53.937 2.488c3.656 3.535 5.108 13.439 5.277 22.129L46.873 1.75H34.42l1.576.809c1.076.552 1.076 3.453 1.076 5.365v7.693c0 13.212-.707 16.162-2.834 18.197l-.082-.045c-1.44-.757-2.369-3.806-2.922-5.629L22.225.326l-.45.22a21.104 21.104 0 0 1-8.576 2.18l-.767.035.433.631c.043.06.092.115.147.163a1.19 1.19 0 0 1 .389.987c0 .954-.633 3.09-1.096 4.65l-1.069 3.512c-4.156 13.63-5.559 18.22-9.33 21.102l-.996.767h14.496l-.593-.7c-1.375-1.636-2.07-5.136-2.01-10.136h7.721l1.452 4.753c.466 1.421.962 3.037.962 4.176 0 .595-.112.967-.342 1.14l-1.04.77h25.803l-.655-.716c-3.428-3.759-7.288-15.564-7.751-27.155L53.6 34.577h7.62v-8.818c0-13.106.121-21.213 1.78-23.315l.548-.693H53.177l.76.737ZM12.922 21.672c.214-4.51.996-10.067 2.137-15.242l4.78 15.242h-6.917ZM79.401 1.243c-9.611 0-15.823 6.605-15.823 16.827 0 10.222 6.212 16.828 15.823 16.828 9.612 0 15.821-6.606 15.821-16.828s-6.21-16.827-15.82-16.827Zm0 31.962c-3.736 0-5.788-5.374-5.788-15.135 0-9.701 2.055-15.046 5.788-15.046 3.734 0 5.834 5.483 5.834 15.046 0 9.618-2.132 15.136-5.834 15.136ZM95.307 12.533l.859.08c.996-5.196 4.667-8.758 8.169-9.101v24.98c0 1.48 0 4.585-1.15 5.288l-1.305.792h14.523l-2.013-.824c-1.091-.446-1.091-3.113-1.091-5.256V3.512c3.502.343 7.176 3.905 8.17 9.102l.859-.082V1.752H95.307v10.782ZM151.726 28.445V7.925c0-2.383.139-4.687 1.168-5.392l1.141-.782H140.01l1.638.814c1.164.575 1.164 3.7 1.164 5.36v8.14h-8.536v-8.14c0-2.339.09-4.687 1.163-5.387l1.191-.787h-13.963l1.574.809c1.076.552 1.076 3.453 1.076 5.365v20.52c0 1.371 0 4.588-1.118 5.343l-1.166.782h14.003l-1.629-.81c-1.119-.552-1.119-3.418-1.119-5.313V18.036h8.536v10.409c0 2.267-.142 4.687-1.201 5.333l-1.267.792h14.08l-1.595-.807c-1.115-.575-1.115-3.776-1.115-5.318ZM155.068 1.75l1.641.815c1.119.552 1.119 3.453 1.119 5.36v20.52c0 2.22-.09 4.67-1.156 5.333l-1.27.792h26.62l.03-14.901s-.8 1.886-1.064 2.518c-2.241 5.333-4.981 10.42-14.197 10.727v-14.26c4.053.223 7.445 1.885 9.348 5.18l.844 1.727V9.728s-.605 1.327-.844 1.749c-2.14 3.761-5.23 4.958-9.348 5.18V3.45c8.967.232 13.846 4.81 14.877 9.96l.391 1.974V1.751h-26.991ZM211.716 26.718l-.172-.434-.424.207a3.24 3.24 0 0 1-1.444.326c-3.407 0-8.703-3.264-10.787-5.037 7.888-.493 12.204-3.991 12.204-9.926 0-6.235-5.883-10.113-15.355-10.113h-11.711l1.193.804c1.116.74 1.116 3.424 1.116 5.387V28.5c0 1.959 0 4.64-1.096 5.284l-1.36.797h14.379l-1.866-.82c-1.051-.463-1.051-3.465-1.051-5.26V21.88h1.024c1.472 8.387 4.717 13.017 9.16 13.017 3.447 0 6.317-3.14 6.317-7.319a2.175 2.175 0 0 0-.127-.86Zm-16.377-6.714V3.532h1.089c3.509.126 5.29 2.913 5.29 8.283 0 5.37-1.776 8.14-5.275 8.187l-1.104.002Z"/>
  <path fill="#FF5938" d="M277.016 2.488c3.657 3.535 5.111 13.439 5.281 22.131L269.955 1.751h-12.453l1.574.809c1.076.552 1.076 3.453 1.076 5.365v7.693c0 13.266-.712 16.186-2.859 18.221l-.695.662-1.425-.74c-1.076-.553-1.076-3.392-1.076-5.272V7.925c0-2.237.087-4.687 1.124-5.392l1.138-.782h-29.502l.712.74c1.48 1.514 2.169 3.113 2.169 5.03 0 2.22-1.618 6.474-4.622 9.96l-2.229 2.622V7.925c0-2.235.089-4.687 1.163-5.387l1.19-.787h-14.174l1.704.816c1.158.553 1.158 3.454 1.158 5.358v20.567c0 2.358-.145 4.632-1.201 5.288l-1.27.792h14.197l-1.642-.812c-1.115-.552-1.115-3.389-1.115-5.268v-5.264l3.218-3.846c.156 6.285 1.678 15.516 9.26 15.516 4.752 0 7.377-3.37 7.377-7.617 0-.143 0-.319-.02-.511a6.487 6.487 0 0 1-.035-.439l-.037-.377-.593.234c-.41.183-.855.28-1.305.284-3.701 0-9.395-4.667-12.757-9.4l1.838-2.075c4.513-5.094 8.777-9.909 11.876-12.499l.787-.636 1.472.705c1.158.553 1.158 3.454 1.158 5.358v20.567c0 2.36-.145 4.632-1.201 5.288l-1.27.792h27.781l-.653-.715c-3.427-3.757-7.285-15.562-7.748-27.153l14.648 27.873h7.619v-8.818c0-13.106.119-21.213 1.778-23.315l.548-.693h-10.371l.749.737ZM300.379 1.75H288.05l1.19.795c1.116.74 1.116 3.315 1.116 5.387v20.513c0 1.958 0 4.645-1.108 5.333l-1.27.792h12.401c10.152 0 16.71-6.414 16.71-16.364 0-9.988-6.558-16.455-16.71-16.455Zm.047 31.177h-1.064V3.443h1.064c4.712 0 7.004 4.83 7.004 14.765 0 14.719-5.273 14.719-7.004 14.719Z"/>
</svg>
