<svg xmlns="http://www.w3.org/2000/svg" fill="none" viewBox="0 0 545 569">
  <path fill="#000" d="M518.903 415.875c-36.658-65.46-110.011-56.553-169.357-28.658a244.875 244.875 0 0 0-27.94 15.112c-35.131 22.826-70.913 45.112-109.117 62.628-21.887 9.485-50.871 21.653-74.881 16.435-36.565-8.609-28.63-66.504-26.394-94.641 3.725-36.262-4.285-57.262-43.401-35.815-23.135 12.578-44.128 28.622-67.207 41.237-7.86 3.727-27.549 16.64-33.677 5.963-4.825-9.857.354-26.74 3.222-37.044a497.745 497.745 0 0 0 1.956-6.652c1.695-6.485.28-13.044-7.041-15.168a27.38 27.38 0 0 0-10.617-.746c-4.955.932-9.128 4.174-12.741 7.454-7.227 6.373-13.04 14.627-18.627 22.36-4.75 6.597-9.724 14.647-17.733 17.796-7.209 2.832-17.882 3.559-22.017-1.864a2.84 2.84 0 0 1-.423-2.214 2.845 2.845 0 0 1 1.317-1.829h.335c2.366-.839 5.048-1.715 8.215-2.814 9.034-2.776 19.204-8.18 22.762-15.541 3.11-6.987-.783-13.043-9.146-13.546a30.2 30.2 0 0 0-11.269 2.273 47.336 47.336 0 0 0-20.043 18.261 27.952 27.952 0 0 0-4.359 11.46c-.875 1.342-1.862 2.646-2.663 3.932-1.267 1.472-2.571 2.813-3.856 4.136-2.385 1.864-6.725 7.342-13.039 4.491a4.826 4.826 0 0 1-2.571-5.012 41.048 41.048 0 0 1 2.888-7.454c3.297-6.82 6.444-13.453 9.704-20.497 11.884-4.342 22.93-11.739 27.941-23.945 2.943-5.869 2.868-16.099-4.452-19.453a12.627 12.627 0 0 0-13.914 4.192 31.666 31.666 0 0 0-4.825 8.218c-.875 1.863-2.049 3.727-3.018 5.702-1.862 3.876-3.855 7.77-5.793 11.665-4.302 8.776-8.661 17.534-13.355 26.087a126.678 126.678 0 0 1-13.542 21.056c-2.068 2.46-4.88 5.758-8.27 6.224-5.737.783-2.068-9.503-.876-12.615 5.253-15.802 6.073-27.634 0-26.796-4.396.597-6.072.541-14.696 11.758-.839 1.1-3.055 4.044-4.844 6.578-2.589 3.727-5.96 9.037-7.45 11.367a3.413 3.413 0 0 0-.298.671 44.922 44.922 0 0 1-9.5 9.316c-6.911 4.901-15.814 8.647-25.351 5.777a149.69 149.69 0 0 0-14.455-3.466 7.455 7.455 0 0 1-3.725-2.571c-2.273-3.094-1.379-7.137 0-10.789a45.13 45.13 0 0 0 3.148-4.696c1.061-1.864 2.16-3.41 3.222-5.199 2.03-3.075 3.856-6.447 5.849-9.839 4.582-7.192 9.313-14.72 13.97-22.267 2.943-4.901 5.421-11.05 9.109-15.448 1.639-1.956 4.694-1.751 7.246-2.217a239.787 239.787 0 0 0 8.959-1.863 180.43 180.43 0 0 0 16.932-4.901 91.676 91.676 0 0 0 16.597-6.671 37.939 37.939 0 0 0 16.075-21.038c2.571-7.696 2.03-17.758-6.128-22.36-8.159-4.603-18.627-.261-25.743 4.36a110.31 110.31 0 0 0-24.755 23.348 264.27 264.27 0 0 0-17.305 24.56c-8.27 1.099-16.149 1.863-22.855 2.795a138.268 138.268 0 0 0-38.521 10.714c-5.588 2.441-10.431 5.59-15.777 8.367a100.82 100.82 0 0 0-14.808 9.447c-9.034 6.802-17.23 14.609-25.966 21.783-7.451 6.093-19 16.771-29.636 14.33-4.265-1.044-9.891-3.019-10.412-7.771-.522-4.751 3.557-9.317 6.053-13.043 6.222-9.541 16.672-24.69 14.734-36.448-3.427-14.609-26.375-8.181-37.086-6.541-20.769 4.1-40.979 10.528-61.376 15.634-12.126 2.739-34.236 8.963-45.133 2.124-11.642-8.087-1.397-31.249 2.962-41.665 4.191-9.559 8.233-19.193 11.735-29.069 8.233-23.311 17.174-57.616-8.848-73.194-22.222-12.783-54.019-9.894-78.644-7.267-42.022 5.311-83.095 15.932-123.683 27.541a242.468 242.468 0 0 1-30.79 6.093c-82.164 11.181-152.742-13.472-152.854-106.026 0-41.517 11.493-82.232 25.259-121.232l-1.733-.597c-17.006 48.728-32.429 101.275-22.743 153.059 14.771 73.343 87.36 86.759 152.499 77.871a248.463 248.463 0 0 0 31.275-6.056c40.514-11.181 81.456-21.858 123.218-27.131 23.786-2.516 55.135-5.46 76.37 6.671 32.188 19.118 6.781 71.964-4.005 98.107-14.715 33.541-13.56 55.902 30.307 47.107 25.928-5.088 50.851-14.125 76.724-19.249 8.662-1.305 31.368-7.659 33.92 4.36 1.546 10.826-8.568 25.398-14.473 34.361-1.099 1.528-2.887 4.211-3.912 5.758-3.613 5.59-4.321 12.41 2.031 16.565a27.36 27.36 0 0 0 9.872 3.858c6.575.782 12.554-2.386 18.198-5.181a87.031 87.031 0 0 0 14.325-9.317c9.108-7.099 17.192-15.354 26.282-22.491a103.2 103.2 0 0 1 10.003-6.969c3.446-2.05 7.302-3.242 10.729-5.292a88.04 88.04 0 0 1 12.331-5.478 131.265 131.265 0 0 1 31.815-8.199c6.147-.783 12.331-1.267 18.515-1.863a873.236 873.236 0 0 0-8.4 14.105c-5.086 9.317-10.506 18.821-15.61 28.063-5.681 9.801-10.971 22.361-19.912 30.317-.633.243-1.248.503-2.03.783a23.411 23.411 0 0 0-7.656 4.36c-4.34 3.243-10.916 12.69-2.85 15.615 3.725 1.584 7.451.224 10.915-2.571 1.472-1.193 2.962-2.385 4.285-3.559 9.313-6.876 18.329-6.224 28.089-4.211a49.479 49.479 0 0 0 9.5 2.552c10.859 1.696 20.359-2.627 27.698-9.074a58.032 58.032 0 0 0 12.201-15.653c1.676-2.441 3.26-5.217 5.216-7.938 3.539-5.236 7.115-11.31 8.978-11.18 2.719.41.912 3.95-.615 7.1-1.155 2.291-3.967 9.074-4.824 11.18-1.099 3.727-2.18 7.658-.783 11.534 3.465 9.951 14.418 6.578 17.119 4.715 0 .167.614-.41.614-.41a16.603 16.603 0 0 0 3.856-3.205c-3.036 6.913-6.147 13.751-9.314 20.646-3.725 8.534-10.449 19.137-9.313 28.286a15.399 15.399 0 0 0 2.273 6.373c3.166 5.739 9.909 7.453 17.639 4.789 9.463-3.317 15.368-13.808 17.137-23.218a69 69 0 0 0 2.682-14.423 95.027 95.027 0 0 0-.335-20.217c0-1.864.112-3.727 2.384-4.1a21.995 21.995 0 0 0 13.933-6.745c1.714-1.994 3.484-4.062 5.03-6.187a18.105 18.105 0 0 0 4.973 6.541c5.868 4.938 14.809 4.584 21.756 2.534A46.382 46.382 0 0 0-76.1 377.862c3.614-5.776 7.06-11.739 10.99-17.311 4.843-6.54 13.04-18.279 21.813-18.987 4.377-.299 10.356 0 12.312 4.285 1.956 4.286-.54 9.858-1.77 14.218-2.98 10.938-8.27 28.491-2.812 39.131 7.767 12.895 27.66 0 37.384-4.845 18.515-10.099 35.764-22.23 53.683-33.224 10.71-6.224 29.803-18.634 42.358-15.485 13.598 4.249 10.971 29.349 10.021 40.566-1.061 10.361-1.862 20.758-2.235 31.212-.671 24.653 1.378 60.001 30.977 67.082 25.128 5.59 54.502-6.671 77.209-16.566 38.446-17.59 74.303-39.969 109.433-63.15a240.582 240.582 0 0 1 27.494-14.907c74.881-35.162 149.724-32.758 178.354 55.361 12.778 39.541 14.38 81.747 13.262 122.984h1.863c1.322-51.28-.149-105.952-25.333-152.351Zm-635.367-45.559c.801-2.404 3.986-5.423 5.066-6.522a18.994 18.994 0 0 1 10.338-6.056 4.714 4.714 0 0 1 4.601 1.714 4.265 4.265 0 0 1 .242 3.913 13.597 13.597 0 0 1-6.259 5.926 46.265 46.265 0 0 1-10.654 4.081 3.321 3.321 0 0 1-3.092-.839 2.104 2.104 0 0 1-.242-2.236v.019Zm-8.513-37.939c.261-.503.54-1.006.82-1.509a46.478 46.478 0 0 1 3.557-6.019c.146-.236.37-.414.634-.503a1.085 1.085 0 0 1 .857.428c2.03 2.069 1.751 4.659 1.322 7.305a24.76 24.76 0 0 1-3.818 9.466 48.446 48.446 0 0 1-11.046 11.273 4.948 4.948 0 0 1-2.403 1.23c-1.472.149-.764-.95-.391-1.863.838-1.864 2.03-3.727 2.98-5.59a375.069 375.069 0 0 1 3.912-7.603 770.71 770.71 0 0 0 3.576-6.634v.019Zm-86.262-21.038a131.593 131.593 0 0 1 8.196-10.658 76.376 76.376 0 0 1 12.909-11.516c4.358-3.074 22.948-12.075 22.352 1.528-.931 19.305-23.172 26.348-39.116 29.814a68.2 68.2 0 0 1-11.438 1.864c1.342-3.783 4.713-7.659 7.097-11.032Zm51.243 112.307a207.443 207.443 0 0 1-4.675 22.23c-.913 2.758-2.776 11.516-10.413 12.615-3.725.54-6.817-5.721-2.756-17.572a208.583 208.583 0 0 1 13.69-25.174 3.408 3.408 0 0 1 2.981-1.249c2.906.56 1.378 7.156 1.173 9.15Z"/>
</svg>
