<svg xmlns="http://www.w3.org/2000/svg" fill="none" viewBox="0 0 18 18">
  <path fill="currentColor" d="M9.38 13.178a4.319 4.319 0 1 1-.003-8.637 4.319 4.319 0 0 1 .003 8.637Zm0-8.172a3.852 3.852 0 1 0 3.85 3.852 3.856 3.856 0 0 0-3.85-3.85v-.002ZM9.38 3.885a.198.198 0 0 0 .196-.197V.52a.197.197 0 1 0-.394 0v3.168c.001.05.022.1.058.136a.199.199 0 0 0 .14.061ZM9.38 13.836a.198.198 0 0 0-.198.198v3.168a.197.197 0 1 0 .394 0v-3.168a.195.195 0 0 0-.196-.198ZM17.72 8.663h-3.169a.197.197 0 0 0 0 .394h3.17a.197.197 0 0 0 0-.394ZM4.403 8.86a.2.2 0 0 0-.057-.136.197.197 0 0 0-.136-.057H1.038a.197.197 0 0 0 0 .394h3.169a.195.195 0 0 0 .196-.196V8.86ZM13.176 12.38a.197.197 0 0 0-.137-.07.202.202 0 0 0-.19.126.195.195 0 0 0-.014.079.2.2 0 0 0 .068.136l2.24 2.246a.199.199 0 0 0 .285 0 .198.198 0 0 0 0-.272l-2.252-2.245ZM5.584 5.343a.197.197 0 1 0 .28-.273L3.621 2.823a.197.197 0 1 0-.273.279l2.235 2.24ZM5.584 12.38l-2.242 2.243a.195.195 0 0 0 .014.293.198.198 0 0 0 .265-.015l2.235-2.243a.197.197 0 0 0 0-.272.196.196 0 0 0-.279 0l.007-.006ZM13.037 5.4a.187.187 0 0 0 .136-.057l2.247-2.241a.197.197 0 0 0-.208-.335.198.198 0 0 0-.064.056l-2.25 2.24a.198.198 0 0 0 .029.304c.032.022.07.033.11.033ZM2.534 6.29l1.98.803a.199.199 0 1 0 .149-.37l-1.97-.804a.2.2 0 0 0-.159.366v.004ZM16.226 11.434l-1.985-.807a.201.201 0 0 0-.156 0 .2.2 0 0 0-.112.11.198.198 0 0 0 .12.26l1.97.807a.19.19 0 0 0 .196-.032.198.198 0 0 0-.048-.333l.015-.005ZM7.189 4.17a.199.199 0 0 0 .182.121.177.177 0 0 0 .075-.016.193.193 0 0 0 .107-.258l-.831-1.97a.198.198 0 0 0-.363.155l.83 1.968ZM11.577 13.55a.197.197 0 0 0-.362.154l.83 1.971a.197.197 0 1 0 .362-.153l-.83-1.972ZM11.256 4.251a.196.196 0 0 0 .256-.106l.806-1.97a.197.197 0 0 0-.258-.251.197.197 0 0 0-.107.1L11.147 4a.195.195 0 0 0 .109.257V4.25ZM7.506 13.47a.196.196 0 0 0-.259.107l-.805 1.971a.196.196 0 0 0 .108.256c.024.01.05.015.075.014a.197.197 0 0 0 .184-.121l.803-1.971a.196.196 0 0 0-.106-.256ZM13.965 6.928a.196.196 0 0 0 .259.106l1.97-.832a.194.194 0 0 0 .127-.183.198.198 0 0 0-.127-.185.195.195 0 0 0-.153 0l-1.971.835a.197.197 0 0 0-.105.259ZM4.796 10.793a.19.19 0 0 0-.108-.106.198.198 0 0 0-.153 0l-1.969.831a.198.198 0 0 0 .076.381.163.163 0 0 0 .077-.015l1.97-.83a.197.197 0 0 0 .107-.258v-.003Z"/>
</svg>
