<svg xmlns="http://www.w3.org/2000/svg" fill="none" viewBox="0 0 34 34">
  <path fill="currentColor" d="M32.886 16.137a16.144 16.144 0 1 0-15.501 16.75 16.161 16.161 0 0 0 15.501-16.75Zm-30.511 1.18a14.397 14.397 0 1 1 14.942 13.824A14.415 14.415 0 0 1 2.375 17.317Z"/>
  <path fill="currentColor" d="m26.998 17.294-1.476.057a8.9 8.9 0 0 1-17.723.685l-1.476.057a10.372 10.372 0 0 0 20.675-.8ZM10.143 14.498l2.19-.085.514 1.153 1.522-.059-3.21-6.25-.198.008-2.723 6.48 1.488-.058.417-1.19Zm.987-2.677.68 1.492-1.248.048.568-1.54ZM20.583 14.094l2.178-.084.514 1.153 1.523-.06-3.21-6.25-.198.008-2.723 6.48 1.487-.058.43-1.19Zm.987-2.677.68 1.492-1.247.049.567-1.541Z"/>
</svg>
