<svg xmlns="http://www.w3.org/2000/svg" fill="none" viewBox="0 0 48 50">
  <path fill="currentColor" d="M24.002 36.98a11.97 11.97 0 0 1-6.724-2.07 12.247 12.247 0 0 1-4.458-5.513 12.46 12.46 0 0 1-.69-7.099 12.345 12.345 0 0 1 3.312-6.291 12.045 12.045 0 0 1 6.196-3.363 11.93 11.93 0 0 1 6.992.7c2.211.93 4.1 2.506 5.43 4.527a12.42 12.42 0 0 1 2.038 6.827 12.393 12.393 0 0 1-3.548 8.68 12.02 12.02 0 0 1-8.548 3.602Zm0-23.247c-2.135 0-4.221.641-5.997 1.845a10.922 10.922 0 0 0-3.976 4.916 11.114 11.114 0 0 0-.615 6.331 11.011 11.011 0 0 0 2.952 5.611 10.742 10.742 0 0 0 5.525 3 10.64 10.64 0 0 0 6.236-.623 10.828 10.828 0 0 0 4.843-4.035 11.077 11.077 0 0 0 1.819-6.088 11.055 11.055 0 0 0-3.165-7.738 10.72 10.72 0 0 0-7.622-3.211v-.008ZM24.002 10.545a.55.55 0 0 0 .388-.166.566.566 0 0 0 .161-.396V.97a.57.57 0 0 0-.33-.561.546.546 0 0 0-.629.134.563.563 0 0 0-.144.427v9.012c.002.145.06.284.16.387a.557.557 0 0 0 .393.175ZM24.002 38.851a.549.549 0 0 0-.392.165.566.566 0 0 0-.162.397v9.012a.57.57 0 0 0 .144.427.554.554 0 0 0 .408.181.547.547 0 0 0 .407-.181.563.563 0 0 0 .144-.427v-9.012a.562.562 0 0 0-.159-.398.546.546 0 0 0-.39-.164ZM47.376 24.136h-8.88a.55.55 0 0 0-.361.18.566.566 0 0 0 0 .76.55.55 0 0 0 .361.18h8.88a.55.55 0 0 0 .36-.18.567.567 0 0 0 0-.76.55.55 0 0 0-.36-.18ZM10.059 24.698a.55.55 0 0 0-.542-.55H.63a.55.55 0 0 0-.361.18.567.567 0 0 0 0 .76.55.55 0 0 0 .36.18h8.88a.54.54 0 0 0 .509-.344.562.562 0 0 0 .04-.215v-.011ZM34.642 34.71a.553.553 0 0 0-.382-.198.553.553 0 0 0-.412.166.55.55 0 0 0-.103.628.567.567 0 0 0 .134.174l6.277 6.39a.557.557 0 0 0 .615.125.558.558 0 0 0 .182-.126.567.567 0 0 0 0-.775l-6.311-6.385ZM13.367 14.69a.557.557 0 0 0 .401.235.545.545 0 0 0 .437-.157.563.563 0 0 0 .1-.67.561.561 0 0 0-.156-.183l-6.28-6.392a.556.556 0 0 0-.408-.225.546.546 0 0 0-.433.168.563.563 0 0 0-.083.673c.04.07.095.131.16.178l6.262 6.373ZM13.367 34.71l-6.281 6.38a.557.557 0 0 0-.122.613.562.562 0 0 0 .405.335.545.545 0 0 0 .5-.157l6.26-6.381a.566.566 0 0 0 0-.775.55.55 0 0 0-.602-.123.55.55 0 0 0-.18.123l.02-.016ZM34.253 14.853a.515.515 0 0 0 .381-.163l6.297-6.373a.558.558 0 0 0 .231-.408.57.57 0 0 0-.155-.443.552.552 0 0 0-.66-.101.556.556 0 0 0-.18.158l-6.303 6.373a.565.565 0 0 0 .08.863.54.54 0 0 0 .309.094ZM4.823 17.383l5.548 2.286a.55.55 0 0 0 .427-.005.573.573 0 0 0 .294-.742.561.561 0 0 0-.305-.303l-5.517-2.29a.554.554 0 0 0-.703.31.578.578 0 0 0 .256.732v.012ZM43.186 32.017l-5.56-2.294a.558.558 0 0 0-.439 0 .553.553 0 0 0-.313.314.57.57 0 0 0 .144.625c.056.051.121.09.192.115l5.522 2.293a.523.523 0 0 0 .547-.092.563.563 0 0 0 .134-.692.557.557 0 0 0-.27-.254l.043-.015ZM17.862 11.354a.564.564 0 0 0 .511.345.49.49 0 0 0 .21-.046.54.54 0 0 0 .302-.302.557.557 0 0 0-.004-.43l-2.328-5.607a.546.546 0 0 0-.711-.262.558.558 0 0 0-.29.29.57.57 0 0 0-.014.414l2.324 5.598ZM30.162 38.037a.546.546 0 0 0-.706-.255.557.557 0 0 0-.288.285.57.57 0 0 0-.021.408l2.324 5.606a.556.556 0 0 0 .507.345.55.55 0 0 0 .514-.35.566.566 0 0 0-.006-.428l-2.324-5.61ZM29.262 11.587a.543.543 0 0 0 .717-.302l2.26-5.607a.57.57 0 0 0-.016-.417.557.557 0 0 0-.296-.292.546.546 0 0 0-.712.283l-2.259 5.618a.567.567 0 0 0 .125.61.548.548 0 0 0 .18.118v-.011ZM18.75 37.809a.546.546 0 0 0-.724.306L15.77 43.72a.566.566 0 0 0 .122.609.55.55 0 0 0 .179.12.494.494 0 0 0 .21.038.547.547 0 0 0 .515-.344l2.251-5.607a.565.565 0 0 0-.297-.728ZM36.851 19.2a.555.555 0 0 0 .508.345.588.588 0 0 0 .217-.043l5.518-2.367a.546.546 0 0 0 .313-.302.57.57 0 0 0-.124-.623.552.552 0 0 0-.185-.121.54.54 0 0 0-.431 0l-5.522 2.375a.558.558 0 0 0-.297.306.57.57 0 0 0 .003.43ZM11.158 30.196a.547.547 0 0 0-.515-.346.547.547 0 0 0-.214.043L4.91 32.257a.556.556 0 0 0-.284.254.57.57 0 0 0 .14.707.548.548 0 0 0 .358.124.452.452 0 0 0 .214-.043l5.521-2.36a.55.55 0 0 0 .3-.304.566.566 0 0 0-.002-.432v-.007Z"/>
  <path fill="currentColor" d="M30.721 25.434a6.812 6.812 0 0 1-2.13 4.422 6.614 6.614 0 0 1-4.517 1.79 6.614 6.614 0 0 1-4.517-1.79 6.812 6.812 0 0 1-2.13-4.422H16.32a7.942 7.942 0 0 0 2.454 5.22 7.71 7.71 0 0 0 5.3 2.12 7.709 7.709 0 0 0 5.3-2.12 7.942 7.942 0 0 0 2.454-5.22H30.72ZM21.27 23.687l-.356-.872h-1.63l-.354.872h-1.118l2.225-4.847h.148l2.229 4.847h-1.145Zm-1.168-2.879-.47 1.162h.935l-.465-1.162ZM29.103 23.687l-.355-.872h-1.644l-.355.872H25.63l2.236-4.847h.149l2.224 4.847h-1.137Zm-1.167-2.879-.474 1.162h.94l-.466-1.162Z"/>
</svg>
